<?xml version="1.0" encoding="UTF-8" standalone="no"?>
<!-- Created with Inkscape (http://www.inkscape.org/) -->

<svg
   width="35.779209mm"
   height="35.437622mm"
   viewBox="0 0 35.779209 35.437622"
   version="1.1"
   id="svg1"
   xml:space="preserve"
   xmlns="http://www.w3.org/2000/svg"
   xmlns:svg="http://www.w3.org/2000/svg"><defs
     id="defs1" /><g
     id="layer1"
     transform="translate(-79.247357,-38.583691)"><g
       id="g17"><g
         id="g18"><path
           id="path15"
           style="fill:#000000;stroke-width:0.264583"
           d="m 97.567447,19.602706 -16.487202,9.519244 -0.07678,0.133816 -0.07678,-0.04461 -0.03437,0.01974 -0.03437,-0.05923 -9.255999,-5.343881 -19.69002,11.367812 v 4.538057 6.810011 l 11.450441,6.611114 v -6.810011 l 11.84604,6.83926 23.296482,-13.450374 v -19.58911 z"
           transform="matrix(0.70669876,0,0,0.70669876,45.413285,36.436229)" /><path
           id="path3"
           style="fill:#999999;stroke-width:0.264583"
           d="M 68.877361,3.0387239 47.876233,15.177259 v 10.162733 7.087881 l 23.723524,-13.709964 0.0015,0.0029 0.0022,-0.0029 9.32181,5.381905 12.215315,-7.052782 z"
           transform="matrix(0.70669876,0,0,0.70669876,45.413285,36.436229)" /><path
           id="path17"
           style="fill:#999999;stroke-width:0.264583"
           d="m 68.877361,3.0387239 -18.527456,13.8310481 -2.473672,8.47022 v 7.087881 l 23.723524,-13.709964 0.0015,0.0029 0.0022,-0.0029 9.32181,5.381905 12.215315,-7.052782 z"
           transform="matrix(0.70669876,0,0,0.70669876,45.413285,36.436229)" /></g></g></g></svg>
